<?xml version="1.0" encoding="UTF-8" standalone="no"?>
<svg
   xmlns:dc="http://purl.org/dc/elements/1.1/"
   xmlns:cc="http://creativecommons.org/ns#"
   xmlns:rdf="http://www.w3.org/1999/02/22-rdf-syntax-ns#"
   xmlns:svg="http://www.w3.org/2000/svg"
   xmlns="http://www.w3.org/2000/svg"
   xmlns:xlink="http://www.w3.org/1999/xlink"
   xmlns:sodipodi="http://sodipodi.sourceforge.net/DTD/sodipodi-0.dtd"
   xmlns:inkscape="http://www.inkscape.org/namespaces/inkscape"
   width="191mm"
   height="179mm"
   viewBox="0 0 191 179"
   version="1.1"
   id="svg8"
   inkscape:version="1.0.1 (3bc2e813f5, 2020-09-07)"
   sodipodi:docname="22.svg">
  <defs
     id="defs2">
    <rect
       x="561.44275"
       y="414.36456"
       width="861.25604"
       height="80.610168"
       id="rect83245" />
    <rect
       x="486.48944"
       y="794.78802"
       width="516.18793"
       height="53.740112"
       id="rect60417" />
    <rect
       x="502.04581"
       y="722.66309"
       width="487.90366"
       height="188.09039"
       id="rect7905" />
    <linearGradient
       inkscape:collect="always"
       id="linearGradient21681">
      <stop
         style="stop-color:#000000;stop-opacity:1;"
         offset="0"
         id="stop21677" />
      <stop
         style="stop-color:#000000;stop-opacity:0;"
         offset="1"
         id="stop21679" />
    </linearGradient>
    <linearGradient
       id="linearGradient21498"
       inkscape:swatch="solid">
      <stop
         style="stop-color:#000000;stop-opacity:1;"
         offset="0"
         id="stop21496" />
    </linearGradient>
    <linearGradient
       id="linearGradient14734"
       inkscape:swatch="solid">
      <stop
         style="stop-color:#ffffff;stop-opacity:1;"
         offset="0"
         id="stop14732" />
    </linearGradient>
    <linearGradient
       inkscape:collect="always"
       xlink:href="#linearGradient21681"
       id="linearGradient21695"
       x1="38.598587"
       y1="251.42436"
       x2="116.42925"
       y2="251.42436"
       gradientUnits="userSpaceOnUse" />
  </defs>
  <sodipodi:namedview
     id="base"
     pagecolor="#ffffff"
     bordercolor="#666666"
     borderopacity="1.0"
     inkscape:pageopacity="0.0"
     inkscape:pageshadow="2"
     inkscape:zoom="0.24748737"
     inkscape:cx="710.02415"
     inkscape:cy="331.33099"
     inkscape:document-units="mm"
     inkscape:current-layer="layer1"
     inkscape:document-rotation="0"
     showgrid="false"
     inkscape:window-width="1710"
     inkscape:window-height="1030"
     inkscape:window-x="192"
     inkscape:window-y="0"
     inkscape:window-maximized="0" />
  <metadata
     id="metadata5">
    <rdf:RDF>
      <cc:Work
         rdf:about="">
        <dc:format>image/svg+xml</dc:format>
        <dc:type
           rdf:resource="http://purl.org/dc/dcmitype/StillImage" />
        <dc:title></dc:title>
      </cc:Work>
    </rdf:RDF>
  </metadata>
  <g
     inkscape:label="Слой 1"
     inkscape:groupmode="layer"
     id="layer1">
    <path
       style="fill:#ffffff;fill-opacity:1;fill-rule:nonzero;stroke:none;stroke-width:2.02031;stroke-linecap:round;stroke-linejoin:round;stroke-miterlimit:4;stroke-dasharray:none;stroke-opacity:1;paint-order:fill markers stroke"
       d="m 101.13232,86.690716 c 0,-45.06268 0.14114,-57.24315 0.66817,-57.66484 1.6266,-1.30148 9.6973,-4.36688 14.83346,-5.63402 7.90494,-1.95022 15.50862,-2.51096 34.07686,-2.51306 l 16.16981,-0.002 v 56.66114 56.661144 h -18.62181 c -22.01855,0 -27.44098,0.5848 -35.90117,3.87192 -3.16463,1.22958 -6.89027,3.16239 -9.16968,4.75711 -0.78038,0.54597 -1.56214,0.99267 -1.73726,0.99267 -0.17511,0 -0.31838,-25.7086 -0.31838,-57.130234 z"
       id="path881" />
    <path
       style="fill:#fce38a;fill-opacity:1;fill-rule:nonzero;stroke:none;stroke-width:2.02031;stroke-linecap:round;stroke-linejoin:round;stroke-miterlimit:4;stroke-dasharray:none;stroke-opacity:1;paint-order:fill markers stroke"
       d="m 394.65641,250.49407 c -1.32627,-1.59804 -6.38339,-5.07257 -9.37954,-6.44424 -6.13531,-2.80885 -6.22942,-2.81565 -39.06233,-2.82245 l -30.60236,-0.006 v -61.73927 -61.73926 h 5.34539 5.34539 v 56.89696 56.89695 l 26.86058,0.18139 26.86059,0.18138 4.27631,1.52065 c 5.20006,1.84912 7.46686,2.96613 12.17743,6.00066 l 3.62481,2.33508 h 8.78656 8.78656 l 3.6248,-2.33508 c 4.83284,-3.1133 7.50339,-4.42969 12.37708,-6.10101 l 4.07667,-1.39801 26.86058,-0.19253 26.86059,-0.19253 v -51.81919 -51.81883 h 5.34539 5.34539 v 56.66114 56.66115 l -30.60236,0.006 c -25.13376,0.005 -31.12773,0.14597 -33.54232,0.7877 -4.30321,1.14367 -10.03056,4.15533 -13.18246,6.93184 l -2.75894,2.43034 h -13.34541 c -11.75708,0 -13.43265,-0.10511 -14.0784,-0.8832 z"
       id="path885" />
    <g
       inkscape:label="Слой 1"
       id="layer1-82"
       transform="translate(-155.53898,6.4406597)">
      <g
         id="g107569"
         transform="matrix(1.5401288,0,0,1.6659253,-25.758658,-444.77967)"
         inkscape:export-filename="D:\Institute\Логотипы игр Inkscape\Mobile Academy.png"
         inkscape:export-xdpi="11.017513"
         inkscape:export-ydpi="11.017513"
         style="fill:#ffffff;fill-opacity:1">
        <path
           id="rect89"
           style="opacity:0.997;fill:#ffffff;fill-opacity:1;stroke-width:4.36218;stroke-linecap:round;stroke-linejoin:round"
           d="m -26.104085,157.54845 -60.316711,-26.61577 61.345516,-26.31635 59.391923,25.98591 z"
           sodipodi:nodetypes="ccccc"
           inkscape:export-filename="D:\Institute\Логотипы игр Inkscape\Mobile Academy.png"
           inkscape:export-xdpi="150.22934"
           inkscape:export-ydpi="150.22934" />
        <path
           id="rect706"
           style="opacity:0.997;fill:#ffffff;fill-opacity:1;stroke-width:5.71363;stroke-linecap:round;stroke-linejoin:round"
           d="m -76.540905,135.25892 2.744045,1.23592 0.01165,16.33428 h -2.837465 z"
           sodipodi:nodetypes="ccccc"
           inkscape:export-filename="D:\Institute\Логотипы игр Inkscape\Mobile Academy.png"
           inkscape:export-xdpi="150.22934"
           inkscape:export-ydpi="150.22934" />
        <ellipse
           style="opacity:0.997;fill:#ffffff;fill-opacity:1;stroke-width:5.23068;stroke-linecap:round;stroke-linejoin:round"
           id="path1126"
           cx="-75.225052"
           cy="156.08105"
           rx="4.0637298"
           ry="3.5852144"
           inkscape:export-filename="D:\Institute\Логотипы игр Inkscape\Mobile Academy.png"
           inkscape:export-xdpi="150.22934"
           inkscape:export-ydpi="150.22934" />
        <path
           style="fill:#ffffff;fill-opacity:1;stroke:#ffffff;stroke-width:0.423873px;stroke-linecap:butt;stroke-linejoin:round;stroke-opacity:1"
           d="m -76.867412,159.29963 -3.799298,9.87524 c 0,0 0.86558,0.37783 1.965755,0.68187 1.258533,0.34778 2.927621,0.47043 3.936992,0.47461 1.027641,0.005 2.399186,-0.17778 3.485599,-0.50914 0.913513,-0.27864 1.541685,-0.55806 1.541685,-0.55806 l -3.761538,-9.96455"
           id="path3534"
           sodipodi:nodetypes="ccssscc"
           inkscape:export-filename="D:\Institute\Логотипы игр Inkscape\Mobile Academy.png"
           inkscape:export-xdpi="150.22934"
           inkscape:export-ydpi="150.22934" />
        <path
           id="rect360"
           style="opacity:0.997;fill:#ffffff;fill-opacity:1;stroke-width:5.31562;stroke-linecap:round;stroke-linejoin:round"
           d="m -64.80117,147.28649 15.418483,6.4133 -0.09342,56.44532 h -15.325065 z"
           sodipodi:nodetypes="ccccc"
           inkscape:export-filename="D:\Institute\Логотипы игр Inkscape\Mobile Academy.png"
           inkscape:export-xdpi="150.22934"
           inkscape:export-ydpi="150.22934" />
        <path
           id="rect360-3"
           style="opacity:0.997;fill:#ffffff;fill-opacity:1;stroke-width:5.31562;stroke-linecap:round;stroke-linejoin:round"
           d="m 12.908174,147.55373 -15.4184782,6.4133 0.09335,56.44532 H 12.908106 Z"
           sodipodi:nodetypes="ccccc"
           inkscape:export-filename="D:\Institute\Логотипы игр Inkscape\Mobile Academy.png"
           inkscape:export-xdpi="150.22934"
           inkscape:export-ydpi="150.22934" />
        <path
           id="rect579"
           style="opacity:0.997;fill:#ffffff;fill-opacity:1;stroke-width:5.18796;stroke-linecap:round;stroke-linejoin:round"
           d="m -26.193142,183.21132 -23.221751,-9.99572 0.03221,-19.51581 23.187229,10.25653 z"
           sodipodi:nodetypes="ccccc"
           inkscape:export-filename="D:\Institute\Логотипы игр Inkscape\Mobile Academy.png"
           inkscape:export-xdpi="150.22934"
           inkscape:export-ydpi="150.22934" />
        <path
           id="rect579-2"
           style="opacity:0.997;fill:#ffffff;fill-opacity:1;stroke-width:5.23068;stroke-linecap:round;stroke-linejoin:round"
           d="m -2.5103042,153.96703 -23.6851538,9.98929 0.0017,19.255 23.7762598,-10.13945 z"
           sodipodi:nodetypes="ccccc"
           inkscape:export-filename="D:\Institute\Логотипы игр Inkscape\Mobile Academy.png"
           inkscape:export-xdpi="150.22934"
           inkscape:export-ydpi="150.22934" />
        <path
           id="rect20149"
           style="opacity:0.997;fill:#ffffff;fill-opacity:1;stroke-width:0.385893;stroke-linecap:round;stroke-linejoin:round"
           d="m -27.191793,163.98024 h 1.996231 c 0.0904,-3.21105 -0.02559,12.52778 -0.0384,18.79208 l -0.95988,0.439 z"
           sodipodi:nodetypes="ccccc"
           inkscape:export-filename="D:\Institute\Логотипы игр Inkscape\Mobile Academy.png"
           inkscape:export-xdpi="150.22934"
           inkscape:export-ydpi="150.22934" />
        <path
           id="rect360-31-4"
           style="opacity:0.997;fill:#ffffff;fill-opacity:1;stroke-width:1.41057;stroke-linecap:round;stroke-linejoin:round"
           d="m -0.89672324,153.30075 -2.31580896,0.96954 0.101723,18.82311 2.26149596,-0.0157 z"
           sodipodi:nodetypes="ccccc"
           inkscape:export-filename="D:\Institute\Логотипы игр Inkscape\Mobile Academy.png"
           inkscape:export-xdpi="150.22934"
           inkscape:export-ydpi="150.22934" />
        <path
           id="rect360-31"
           style="opacity:0.997;fill:#ffffff;fill-opacity:1;stroke-width:1.41057;stroke-linecap:round;stroke-linejoin:round"
           d="m -50.611609,153.19784 1.925586,0.8149 0.0064,19.06485 -2.220611,0.0219 z"
           sodipodi:nodetypes="ccccc"
           inkscape:export-filename="D:\Institute\Логотипы игр Inkscape\Mobile Academy.png"
           inkscape:export-xdpi="150.22934"
           inkscape:export-ydpi="150.22934" />
      </g>
    </g>
    <path
       style="fill:#fce38a;fill-opacity:1;fill-rule:nonzero;stroke:none;stroke-width:1.42857;stroke-linecap:round;stroke-linejoin:round;stroke-miterlimit:4;stroke-dasharray:none;stroke-opacity:1;paint-order:fill markers stroke"
       d="m 233.29642,-103.17585 c -13.40771,-2.35674 -26.26556,-11.82525 -32.0562,-23.60615 -3.02496,-6.1542 -4.10639,-11.75471 -3.79634,-19.6606 0.22791,-5.81157 0.77681,-8.7418 2.39821,-12.80242 2.91921,-7.31086 9.79761,-15.12107 18.07475,-20.52332 6.13304,-4.00286 12.39916,-5.84595 21.16667,-6.22588 13.62197,-0.5903 23.3446,2.87114 33.93328,12.0809 4.19034,3.64464 8.75011,10.73702 10.82345,16.83503 2.82074,8.29624 2.73204,17.64196 -0.24624,25.94373 -2.3334,6.50421 -4.904,10.31538 -10.63822,15.77223 -6.36913,6.06105 -13.04529,9.65766 -21.96601,11.83362 -3.52856,0.86068 -13.65535,1.06265 -17.69335,0.35286 z"
       id="path970" />
    <path
       style="fill:#fce38a;fill-opacity:1;fill-rule:nonzero;stroke:none;stroke-width:1.42857;stroke-linecap:round;stroke-linejoin:round;stroke-miterlimit:4;stroke-dasharray:none;stroke-opacity:1;paint-order:fill markers stroke"
       d="m 206.01059,-10.761147 c -14.3744,-0.26147 -16.60822,-0.49246 -21.69818,-2.24366 -8.37211,-2.88043 -15.24942,-9.82117 -17.85196,-18.01663 -3.35918,-10.57811 -1.22299,-30.09768 4.98406,-45.5422 3.97593,-9.89299 8.65856,-15.521986 16.42322,-19.742371 5.20372,-2.828414 13.22313,-4.746832 17.82999,-4.265322 2.59869,0.27162 3.84046,0.836952 11.14925,5.075802 10.32448,5.987862 14.31936,7.244313 23.93743,7.528691 11.10371,0.32831 15.28476,-0.820898 28.21766,-7.755931 8.22822,-4.412232 10.60822,-5.190062 14.87164,-4.860362 3.48122,0.26922 8.73094,1.753447 12.36127,3.494853 13.72172,6.582055 22.64261,25.17096 23.77528,49.54176 0.26262,5.65072 -0.27175,13.34852 -1.16033,16.71496 -1.04061,3.94239 -2.43275,6.08044 -6.82747,10.4856 -3.67549,3.68423 -4.62724,4.41615 -7.75909,5.96698 -5.83432,2.88905 -8.26862,3.2465 -24.73639,3.63231 -15.77978,0.36969 -52.79715,0.3624 -73.51638,-0.0145 z"
       id="path972" />
    <path
       style="fill:#fce38a;fill-opacity:1;fill-rule:nonzero;stroke:none;stroke-width:1.42857;stroke-linecap:round;stroke-linejoin:round;stroke-miterlimit:4;stroke-dasharray:none;stroke-opacity:1;paint-order:fill markers stroke"
       d="m -240.84973,-42.418489 c -0.74661,-0.5717 -1.79744,-1.57426 -2.33519,-2.22793 l -0.97772,-1.18849 V -58.159076 -70.48323 h -17.25014 -17.25014 l -1.74316,-1.586362 c -2.29388,-2.087542 -2.65901,-2.774313 -2.6733,-5.028221 -0.0146,-2.309437 0.80046,-3.7621 2.94423,-5.247182 2.17906,-1.509528 4.58243,-1.700544 21.70391,-1.724999 l 14.2686,-0.02037 v -12.42508 -12.425076 l 1.65767,-1.52798 c 4.30574,-3.96889 6.66573,-3.85491 11.78421,0.56915 4.22132,3.64862 28.96701,26.970141 30.27992,28.537247 1.70043,2.029648 2.16143,3.633494 1.62113,5.640017 -0.34767,1.291127 -1.24018,2.414283 -4.46242,5.615617 -8.50871,8.453509 -28.99953,27.2518 -30.4941,27.9753 -2.37176,1.14815 -5.35718,1.02689 -7.0735,-0.28732 z"
       id="path974" />
    <path
       style="fill:#fce38a;fill-opacity:1;fill-rule:nonzero;stroke:none;stroke-width:1.42857;stroke-linecap:round;stroke-linejoin:round;stroke-miterlimit:4;stroke-dasharray:none;stroke-opacity:1;paint-order:fill markers stroke"
       d="m -162.53069,24.622081 c -4.56155,-1.75718 -7.87498,-4.35009 -9.41406,-7.36694 -1.01413,-1.98785 -1.90077,-5.77847 -1.91201,-8.1743803 -0.005,-1.03944 -0.11333,-2.75919 -0.241,-3.82167 l -0.23213,-1.9318 -12.33229,-0.27003 c -16.03017,-0.35101 -17.07379,-0.48326 -21.55186,-2.73114997 -5.88272,-2.95299003 -10.06075,-7.81584003 -11.51625,-13.40386973 -0.35548,-1.3648 -0.62827,-5.45252 -0.80509,-12.06445 l -0.26744,-10.00024 1.87856,-2.07821 1.87857,-2.07821 3.24384,-0.13322 3.24385,-0.13321 2.09649,1.98277 2.09649,1.98277 v 9.27524 c 0,8.48587 0.064,9.40742 0.75185,10.82836 1.0122,2.09092 2.89318,3.8164 4.72881,4.33785 0.90763,0.25784 6.61046,0.52131 14.2686,0.65921 l 12.75669,0.22971 0.0102,-53.63594 c 0.006,-29.499766 0.1589,-55.171131 0.34059,-57.047481 0.54485,-5.62672 0.88568,-6.44181 3.946,-9.43682 2.7253,-2.66712 3.03088,-2.87294 6.47549,-4.36139 1.80978,-0.78201 1.85059,-0.8318 0.96281,-1.17451 -0.55318,-0.21355 -8.55623,-0.31326 -19.84375,-0.24723 -20.74383,0.12135 -19.92132,0.031 -22.19992,2.43927 -1.54675,1.63478 -1.8649,2.88293 -2.21759,8.69997 -0.36198,5.97037 -0.82534,7.53323 -2.61027,8.80421 -3.36276,2.3945 -6.54756,2.13754 -9.56595,-0.77181 l -1.85814,-1.791 0.1292,-7.53093 0.12921,-7.53093 1.59397,-3.2154 c 2.14533,-4.32761 6.00372,-8.07452 10.93929,-10.62321 l 3.46182,-1.78766 h 48.71639 48.71638 l 2.93488,1.92671 c 3.51219,2.30572 5.224334,4.47478 6.385554,8.08965 l 0.84993,2.64584 v 66.901785 c 0,62.3842357 -0.0442,67.0445057 -0.65462,69.01530573 -0.92546,2.98795997 -2.31711,5.31650997 -4.232654,7.08218997 -2.18294,2.01217 -3.56004,2.67058 -9.8538,4.7113103 -9.69514,3.14359 -40.41088,12.68368 -42.71131,13.26582 -3.44683,0.87225 -6.95842,1.06348 -8.51537,0.46372 z"
       id="path976" />
    <path
       style="fill:#fce38a;fill-opacity:1;fill-rule:nonzero;stroke:none;stroke-width:2.85716;stroke-linecap:round;stroke-linejoin:round;stroke-miterlimit:4;stroke-dasharray:none;stroke-opacity:1;paint-order:fill markers stroke"
       d="m 69.388818,174.42932 c -0.61315,-1.59783 0.47223,-4.31067 14.53966,-36.34068 19.827952,-45.146134 19.969642,-45.522425 18.172752,-48.264807 -0.96946,-1.479595 -2.00817,-1.764763 -8.104282,-2.224966 -3.84577,-0.290314 -7.27295,-0.701298 -7.61596,-0.913288 -1.78491,-1.10313 -0.34684,-6.16428 4.54402,-15.9923 2.84222,-5.71135 11.209692,-23.01422 18.594372,-38.45082 l 13.4267,-28.0665599 3.43376,-0.47064 c 4.53659,-0.62181 56.01503,-0.60892 59.13368,0.0148 1.33502,0.26701 2.61024,0.96216 2.83382,1.54478 0.49484,1.28954 -2.47622,8.0916299 -17.89063,40.9596799 -11.95965,25.50148 -16.0813,34.6318 -16.97478,37.60263 -0.30412,1.01122 0.0293,2.2244 0.91063,3.312704 1.1572,1.429073 2.43756,1.809226 7.6317,2.265905 6.4441,0.566586 8.84494,1.747361 8.00473,3.936894 -0.58897,1.534848 -27.47732,24.564498 -74.066302,63.437168 -19.78545,16.50848 -22.80374,18.81192 -24.65008,18.81192 -0.81275,0 -1.67846,-0.5231 -1.92379,-1.16243 z"
       id="path978" />
    <path
       style="fill:#fce38a;fill-opacity:1;fill-rule:nonzero;stroke:none;stroke-width:1.42857;stroke-linecap:round;stroke-linejoin:round;stroke-miterlimit:4;stroke-dasharray:none;stroke-opacity:1;paint-order:fill markers stroke"
       d="m 402.39805,215.71683 c -0.16353,-1.18942 -3.5838,-7.8505 -5.17846,-10.08522 -3.88472,-5.44394 -10.12057,-10.38068 -16.28899,-12.89552 -4.47055,-1.82263 -9.14182,-2.71643 -15.74065,-3.01181 l -5.57515,-0.24956 V 132.99909 76.523465 l 2.17337,0.236785 c 9.27599,1.010605 15.30649,2.92812 21.1793,6.734367 6.32738,4.100864 10.76515,9.120328 14.57071,16.480617 5.07185,9.809416 5.55888,15.215026 5.48612,60.891316 -0.0387,24.3092 -0.40574,56.45413 -0.62625,54.85028 z"
       id="path980" />
    <path
       style="fill:#fce38a;fill-opacity:1;fill-rule:nonzero;stroke:none;stroke-width:1.42857;stroke-linecap:round;stroke-linejoin:round;stroke-miterlimit:4;stroke-dasharray:none;stroke-opacity:1;paint-order:fill markers stroke"
       d="m 390.60252,223.62967 c -0.7018,-0.41123 -5.97956,-1.77681 -9.82105,-2.54113 -2.20932,-0.43958 -7.2759,-0.60772 -22.96205,-0.76201 l -20.12723,-0.19799 V 158.55856 96.988575 h 5.10133 5.10134 l 0.0958,51.877235 0.0958,51.87723 10.96131,0.21871 c 10.01999,0.19992 11.18852,0.29239 13.60714,1.07673 7.39511,2.39817 13.08787,6.99706 16.40156,13.25 1.87013,3.52895 3.30713,8.72527 2.40276,8.6886 -0.15592,-0.006 -0.54147,-0.16266 -0.85678,-0.34741 z"
       id="path982" />
    <path
       style="fill:#fce38a;fill-opacity:1;fill-rule:nonzero;stroke:none;stroke-width:1.42857;stroke-linecap:round;stroke-linejoin:round;stroke-miterlimit:4;stroke-dasharray:none;stroke-opacity:1;paint-order:fill markers stroke"
       d="m 414.83671,174.56819 c 0.0206,-30.29952 0.14812,-56.02552 0.28348,-57.1689 0.24004,-2.02764 0.29267,-2.10382 2.13598,-3.0914 3.2296,-1.73031 12.89622,-4.72967 17.95387,-5.57073 6.44324,-1.07147 15.83884,-1.52736 31.65551,-1.53598 l 13.32366,-0.007 v 56.46452 56.46451 l -19.56027,0.20191 c -10.75815,0.11105 -21.00603,0.38966 -22.77306,0.61912 -6.73883,0.87511 -13.90891,3.37099 -19.72356,6.8657 -1.69162,1.01669 -3.13357,1.84853 -3.20433,1.84853 -0.0708,0 -0.11184,-24.79051 -0.0913,-55.09003 z"
       id="path984" />
    <path
       style="fill:#e1e7f7;fill-opacity:1;fill-rule:nonzero;stroke:none;stroke-width:4.04061;stroke-linecap:round;stroke-linejoin:round;stroke-miterlimit:4;stroke-dasharray:none;stroke-opacity:1;paint-order:fill markers stroke"
       d="m -231.35097,171.14789 c 0,-15.28782 0.13713,-27.79603 0.30473,-27.79603 0.1676,0 14.62393,-2.16488 32.12519,-4.81085 17.50125,-2.64597 32.03722,-4.81085 32.30215,-4.81085 0.26493,0 0.48169,14.67309 0.48169,32.60688 v 32.60688 h -32.60688 -32.60688 z"
       id="path1006" />
    <path
       style="fill:#e1e7f7;fill-opacity:1;fill-rule:nonzero;stroke:none;stroke-width:4.04061;stroke-linecap:round;stroke-linejoin:round;stroke-miterlimit:4;stroke-dasharray:none;stroke-opacity:1;paint-order:fill markers stroke"
       d="M -156.5155,165.50196 V 132.06 l 35.54685,-5.13412 c 19.55076,-2.82377 36.388736,-5.36692 37.417726,-5.65144 1.75712,-0.48585 1.87089,1.85993 1.87089,38.57609 v 39.09339 h -37.417726 -37.41774 z"
       id="path1008" />
    <path
       style="fill:#e1e7f7;fill-opacity:1;fill-rule:nonzero;stroke:none;stroke-width:4.04061;stroke-linecap:round;stroke-linejoin:round;stroke-miterlimit:4;stroke-dasharray:none;stroke-opacity:1;paint-order:fill markers stroke"
       d="m -196.07139,271.61833 c -14.40583,-2.24583 -28.23703,-4.39162 -30.736,-4.76841 l -4.54358,-0.68509 V 238.4343 210.70378 h 32.60688 32.60688 v 32.60688 c 0,30.38258 -0.12762,32.59952 -1.87088,32.49894 -1.02899,-0.0594 -13.65748,-1.94544 -28.0633,-4.19127 z"
       id="path1010" />
    <path
       style="fill:#e1e7f7;fill-opacity:1;fill-rule:nonzero;stroke:none;stroke-width:4.04061;stroke-linecap:round;stroke-linejoin:round;stroke-miterlimit:4;stroke-dasharray:none;stroke-opacity:1;paint-order:fill markers stroke"
       d="m -116.95961,283.33458 c -18.52178,-2.83959 -34.99895,-5.18898 -36.61593,-5.22088 l -2.93996,-0.058 v -33.67596 -33.67596 h 37.41774 37.417726 v 39.02135 c 0,21.46174 -0.36082,38.96532 -0.80181,38.89684 -0.441,-0.0685 -15.95599,-2.44781 -34.477766,-5.28739 z"
       id="path1012" />
  </g>
</svg>
