<?xml version="1.0" encoding="UTF-8" standalone="no"?>
<svg
   xmlns:dc="http://purl.org/dc/elements/1.1/"
   xmlns:cc="http://creativecommons.org/ns#"
   xmlns:rdf="http://www.w3.org/1999/02/22-rdf-syntax-ns#"
   xmlns:svg="http://www.w3.org/2000/svg"
   xmlns="http://www.w3.org/2000/svg"
   xmlns:sodipodi="http://sodipodi.sourceforge.net/DTD/sodipodi-0.dtd"
   xmlns:inkscape="http://www.inkscape.org/namespaces/inkscape"
   width="77mm"
   height="77mm"
   viewBox="0 0 77 77"
   version="1.1"
   id="svg8"
   inkscape:version="1.0.1 (3bc2e813f5, 2020-09-07)"
   sodipodi:docname="рисунок-2.svg">
  <defs
     id="defs2" />
  <sodipodi:namedview
     id="base"
     pagecolor="#ffffff"
     bordercolor="#666666"
     borderopacity="1.0"
     inkscape:pageopacity="0.0"
     inkscape:pageshadow="2"
     inkscape:zoom="1.4"
     inkscape:cx="149.67976"
     inkscape:cy="138.14182"
     inkscape:document-units="mm"
     inkscape:current-layer="layer1"
     inkscape:document-rotation="0"
     showgrid="false"
     inkscape:window-width="1710"
     inkscape:window-height="861"
     inkscape:window-x="-8"
     inkscape:window-y="0"
     inkscape:window-maximized="0" />
  <metadata
     id="metadata5">
    <rdf:RDF>
      <cc:Work
         rdf:about="">
        <dc:format>image/svg+xml</dc:format>
        <dc:type
           rdf:resource="http://purl.org/dc/dcmitype/StillImage" />
        <dc:title></dc:title>
      </cc:Work>
    </rdf:RDF>
  </metadata>
  <g
     inkscape:label="Слой 1"
     inkscape:groupmode="layer"
     id="layer1">
    <path
       style="fill:#797373;fill-opacity:1;fill-rule:nonzero;stroke:none;stroke-width:2.85716;stroke-linecap:round;stroke-linejoin:round;stroke-miterlimit:4;stroke-dasharray:none;stroke-opacity:1;paint-order:fill markers stroke"
       d="m 62.324892,66.111785 c -8.84965,-8.849651 -10.1663,-9.901116 -11.33572,-9.052626 -0.72771,0.527997 -3.53426,2.057111 -6.23679,3.398036 -4.597,2.280912 -5.42629,2.438042 -12.86709,2.438042 -7.52839,0 -8.23532,-0.138509 -13.22916,-2.592003 C 2.9117415,52.56796 -3.6814485,34.639674 3.4720215,19.014428 8.9686515,7.0081988 21.183942,-0.31289423 33.949022,0.74838977 c 6.89343,0.57311703 9.74636,1.51696203 15.1583,5.01487003 14.41871,9.3192642 18.56676,29.4765822 8.97158,43.5971562 l -1.97116,2.900826 10.25921,10.35372 c 9.25201,9.337223 10.17632,10.508623 9.41478,11.931583 -0.46445,0.86782 -1.4294,1.57786 -2.14434,1.57786 -0.71493,0 -5.80556,-4.50568 -11.3125,-10.01262 z M 42.870652,55.429222 c 4.88606,-2.236914 10.07381,-7.341539 12.54726,-12.346204 1.51958,-3.074659 1.79156,-4.765209 1.79896,-11.181829 0.008,-6.524476 -0.23785,-8.022119 -1.79212,-10.938115 -2.90362,-5.447546 -4.74052,-7.534706 -9.3267,-10.597351 -10.53851,-7.0376142 -23.99953,-5.3985722 -32.89317,4.005143 -5.2889505,5.592284 -7.2550005,11.07335 -6.8304205,19.042229 0.47713,8.95527 4.2027305,15.39367 11.8273205,20.439383 6.8604,4.539998 16.80753,5.175784 24.66887,1.576744 z"
       id="path847" />
    <path
       style="fill:#000000;fill-opacity:1;fill-rule:nonzero;stroke:none;stroke-width:2.69966;stroke-linecap:round;stroke-linejoin:round;stroke-miterlimit:4;stroke-dasharray:none;stroke-opacity:1;paint-order:fill markers stroke"
       d="m 271.80356,282.87663 c -8.16525,-6.52463 -16.53188,-14.32713 -42.24759,-39.39896 -12.50335,-12.19027 -24.55051,-23.5358 -26.77148,-25.21227 -5.99076,-4.52205 -7.58641,-4.54066 -14.89045,-0.17361 -8.64924,5.17133 -28.09852,14.68641 -33.57143,16.42398 -6.60287,2.09634 -15.89503,2.88701 -33.92857,2.88701 -26.133942,0 -32.08662,-1.14543 -48.552431,-9.3426 C 57.743672,221.04181 48.123771,214.17586 37.491889,203.54397 19.359175,185.41126 8.3737978,164.41977 4.1998015,139.92754 2.0684572,127.42121 2.5677452,108.5229 5.3509466,96.35611 10.485161,73.911838 20.670292,54.969931 36.387562,38.635428 58.661212,15.487073 87.439477,3.1001307 118.96547,3.0916724 c 20.55632,-0.00551 37.51505,3.2962426 50.65487,9.8621826 38.96948,19.472963 63.1746,53.297011 68.32844,95.481635 1.17371,9.60695 0.45239,27.19071 -1.49699,36.49205 -3.33401,15.90811 -9.13537,29.33165 -18.99766,43.95798 -2.90091,4.3022 -5.27437,8.20167 -5.27437,8.66549 0,0.46381 13.75482,14.68828 30.56628,31.60991 32.53632,32.74956 40.55494,41.41947 43.02253,46.51682 1.53958,3.18034 1.54013,3.19983 0.16581,5.86323 -1.43764,2.78613 -5.26787,5.88657 -7.27217,5.88657 -0.63989,0 -3.72628,-2.04791 -6.85865,-4.55091 z M 128.96208,218.12377 c 21.2575,-1.76085 37.82593,-8.51234 53.9539,-21.98571 15.21275,-12.70881 27.4079,-30.29529 31.54885,-45.49624 1.45184,-5.32951 1.55958,-7.34957 1.60008,-30 0.0501,-27.989439 -0.0769,-28.839174 -6.11146,-40.921267 C 201.57726,62.950241 192.13972,51.413176 179.42841,42.404727 151.22762,22.418943 121.52942,17.424738 90.996277,27.533514 73.101605,33.458001 57.8557,44.037374 44.950378,59.485481 28.912795,78.68301 22.82907,97.135917 23.84582,123.49897 c 1.051862,27.27345 8.48599,46.35134 24.71499,63.42504 19.556632,20.57453 40.403274,29.99711 70.40466,31.82256 0.78571,0.0478 5.28419,-0.23245 9.99661,-0.6228 z"
       id="path851"
       transform="scale(0.26458333)" />
  </g>
</svg>
