<?xml version="1.0" encoding="UTF-8" standalone="no"?>
<svg
   xmlns:dc="http://purl.org/dc/elements/1.1/"
   xmlns:cc="http://creativecommons.org/ns#"
   xmlns:rdf="http://www.w3.org/1999/02/22-rdf-syntax-ns#"
   xmlns:svg="http://www.w3.org/2000/svg"
   xmlns="http://www.w3.org/2000/svg"
   xmlns:sodipodi="http://sodipodi.sourceforge.net/DTD/sodipodi-0.dtd"
   xmlns:inkscape="http://www.inkscape.org/namespaces/inkscape"
   width="40mm"
   height="40mm"
   viewBox="0 0 40 40"
   version="1.1"
   id="svg8"
   inkscape:version="1.0.1 (3bc2e813f5, 2020-09-07)"
   sodipodi:docname="close.svg">
  <defs
     id="defs2" />
  <sodipodi:namedview
     id="base"
     pagecolor="#ffffff"
     bordercolor="#666666"
     borderopacity="1.0"
     inkscape:pageopacity="0.0"
     inkscape:pageshadow="2"
     inkscape:zoom="0.49497475"
     inkscape:cx="354.32371"
     inkscape:cy="103.61534"
     inkscape:document-units="mm"
     inkscape:current-layer="layer1"
     inkscape:document-rotation="0"
     showgrid="false"
     inkscape:window-width="1710"
     inkscape:window-height="1030"
     inkscape:window-x="160"
     inkscape:window-y="0"
     inkscape:window-maximized="0" />
  <metadata
     id="metadata5">
    <rdf:RDF>
      <cc:Work
         rdf:about="">
        <dc:format>image/svg+xml</dc:format>
        <dc:type
           rdf:resource="http://purl.org/dc/dcmitype/StillImage" />
        <dc:title></dc:title>
      </cc:Work>
    </rdf:RDF>
  </metadata>
  <g
     inkscape:label="Слой 1"
     inkscape:groupmode="layer"
     id="layer1">
    <path
       style="fill:#a3a5a0;fill-opacity:1;fill-rule:nonzero;stroke:none;stroke-width:0;stroke-linecap:round;stroke-linejoin:round;stroke-miterlimit:4;stroke-dasharray:none;stroke-opacity:1;paint-order:fill markers stroke"
       d="m 28.076036,9.8587931 c 0.727993,0.2388349 1.32623,0.8192689 1.564189,1.5176379 0.178492,0.523849 0.176412,0.951306 -0.0073,1.5048 -0.130445,0.392955 -0.501069,0.798025 -3.338812,3.649122 l -3.19208,3.207099 3.105299,3.116297 c 2.058592,2.065882 3.171477,3.248645 3.301627,3.50894 0.461607,0.923181 0.262617,1.996906 -0.500426,2.700255 -0.504985,0.465479 -0.900628,0.634694 -1.50074,0.641862 -1.075581,0.01285 -0.966327,0.09578 -4.457929,-3.383999 -1.752794,-1.746859 -3.224761,-3.176108 -3.271039,-3.176108 -0.04628,0 -1.518244,1.429249 -3.271039,3.176108 -2.850617,2.840964 -3.229306,3.18737 -3.588785,3.282844 -0.53429,0.141899 -1.263122,0.126188 -1.650275,-0.03557 -0.526276,-0.219893 -1.105072,-0.82497 -1.3080307,-1.367427 -0.222102,-0.593614 -0.229176,-0.940409 -0.03202,-1.570026 0.1406257,-0.449122 0.3630697,-0.694929 3.3377047,-3.688287 l 3.187042,-3.207096 -3.190975,-3.205993 c -2.83672,-2.850072 -3.207268,-3.255067 -3.3377057,-3.648017 -0.275689,-0.830475 -0.120162,-1.619249 0.4507747,-2.286266 0.496434,-0.579972 0.928174,-0.7663669 1.77937,-0.7682079 0.600052,-0.0013 0.776298,0.03374 1.076318,0.2139849 0.197328,0.118547 1.751764,1.601586 3.454298,3.295642 l 3.095518,3.080105 3.04849,-3.051946 c 1.67667,-1.67857 3.227197,-3.15742 3.445615,-3.286336 0.425596,-0.2511889 1.357882,-0.3647739 1.800948,-0.2194139 z"
       id="path847" />
    <circle
       style="fill:none;fill-opacity:1;fill-rule:nonzero;stroke:#a3a5a0;stroke-width:1.886;stroke-linecap:round;stroke-linejoin:round;stroke-miterlimit:4;stroke-dasharray:none;stroke-opacity:1;paint-order:fill markers stroke"
       id="path849"
       cx="-19.911579"
       cy="-19.777945"
       r="19.450726"
       transform="scale(-1)" />
  </g>
</svg>
